PathFileType	4	(X/Y/Z)	T1_P1_Vision_Movement_2_0-687.trc
DataRate	CameraRate	NumFrames	NumMarkers	Units	OrigDataRate	OrigDataStartFrame	OrigNumFrames
60	60	5	27	m	60	171	687
Frame#	Time	RHip			RKnee			RAnkle			RBigToe			RSmallToe			RHeel			LHip			LKnee			LAnkle			LBigToe			LSmallToe			LHeel			Neck			Head			Nose			RShoulder			RElbow			RWrist			RThumb			RIndex			RPinky			LShoulder			LElbow			LWrist			LThumb			LIndex			LPinky		
		X1	Y1	Z1	X2	Y2	Z2	X3	Y3	Z3	X4	Y4	Z4	X5	Y5	Z5	X6	Y6	Z6	X7	Y7	Z7	X8	Y8	Z8	X9	Y9	Z9	X10	Y10	Z10	X11	Y11	Z11	X12	Y12	Z12	X13	Y13	Z13	X14	Y14	Z14	X15	Y15	Z15	X16	Y16	Z16	X17	Y17	Z17	X18	Y18	Z18	X19	Y19	Z19	X20	Y20	Z20	X21	Y21	Z21	X22	Y22	Z22	X23	Y23	Z23	X24	Y24	Z24	X25	Y25	Z25	X26	Y26	Z26	X27	Y27	Z27
172	2.8666666666666667	-125.73146313885496	3896.7599253818075	-643.5841015035005	235.30860000490225	4062.184290926478	-654.2634607973607	598.7153022589482	4264.8743979430965	-691.302540435649	683.8782495585111	4187.1848819055585	-647.485834751846	673.7420397243887	4158.86909811236	-701.5621163651609	639.0340846715094	4315.443935946406	-698.2209357773735	-167.84998129690396	4030.2068642128725	-493.105719197902	209.97469489644737	4164.226050780812	-501.6891110912108	550.7560150866186	4331.61797932942	-521.6272699779286	632.2859954417877	4215.513371046241	-401.0762206967059	602.2779654697083	4254.922496151368	-374.71105161488583	607.2798073730038	4375.329537378581	-545.3447124099614	-708.6913594659005	3810.9120167342408	-600.6641719118923	-955.016209907342	3688.9557277118765	-573.7475528461379	-805.4832763868214	3648.9698689712836	-478.66826042122426	-597.2456512285471	3773.786588847879	-733.4979023347167	-355.33610566551494	3633.5568753175094	-691.6571526847631	-528.7741416324479	3580.2366561001927	-526.2738624667907	-599.3531674362123	3590.7896921216357	-422.3951987097768	-583.6816487052606	3585.9691774800426	-409.4524845171694	-560.8388716393154	3547.3429012183487	-405.214370712397	-663.4297190372014	3906.7193919586057	-484.14012756467275	-433.77949410160335	4067.594384887995	-413.6516078882568	-170.44171360748075	4108.455344135555	-366.6528326263579	-55.7169625394572	4099.20022586193	-371.45229546970256	-14.123170285953918	4127.7328135150465	-354.8168388157438	-39.116442780530264	4148.712976907054	-335.42141481232176
173	2.8833333333333333	-124.85351674908455	3900.031471552339	-644.1150041155422	235.61994364555517	4070.8103511660556	-659.2493957225236	599.9224409064749	4265.769991974313	-691.754064183659	684.1445375129267	4190.473311947733	-648.3355758117513	674.8976466226292	4159.838238669818	-701.6871615589866	639.7839316447943	4315.6790370106155	-698.424857604772	-166.71501430329468	4040.6208790997644	-497.86349418561554	209.93472590587822	4165.139490178031	-502.2603338388325	550.3916022306092	4331.414304179197	-521.5627944267959	633.0446262915846	4215.5896462879555	-401.11261784484276	605.1177820599545	4266.004508254827	-376.6507445668219	607.0943093992792	4374.512908638405	-545.0289744234462	-708.5953669733514	3810.2376890903197	-600.0847928201609	-954.9638977360585	3688.832183550201	-572.9961644443555	-805.1907161685216	3648.5197914524797	-480.1508263235889	-597.6856535104879	3773.671995931509	-733.5299634793462	-354.60794126873503	3633.9613638831456	-691.8431961481735	-525.1576450689736	3580.8203186668975	-526.1489569785066	-597.4049550891797	3597.6591617927697	-423.9107078198035	-580.2588581820312	3588.2870087411543	-409.83915548039465	-562.2977223799355	3556.9546606480085	-407.6803708094801	-664.0704837546313	3915.6928322338167	-485.9713547029693	-432.032122563577	4081.9434712544867	-417.95566602898657	-170.32440077920538	4105.30588256087	-366.15989508198203	-56.89259988627126	4091.61509197099	-370.4400758632278	-13.977159190931046	4127.369224661939	-354.80503123893703	-39.08460675359352	4149.094100839377	-335.7590698581722
174	2.9	-124.25839694189754	3904.9118193415416	-645.2643275396626	237.03462333593293	4077.377323216014	-663.3674800234317	601.0695168052916	4266.642856167956	-692.195739430953	683.8223558665877	4188.52711523038	-647.8940171846302	676.1785750797743	4160.694780138243	-701.6637779581602	639.9568801329249	4315.583811301925	-698.4937381200311	-163.3207345881101	4050.1027850375826	-502.7332802299234	210.11727026065768	4165.7683987043365	-502.94066590410233	549.5364010462204	4330.960780932865	-521.7050080250319	633.5184148204324	4215.606437343752	-401.1371901873054	606.6208506134227	4275.611047548595	-378.4732599076873	606.3686177577803	4375.068490766184	-545.1885746965592	-708.3461852235962	3808.4889205174395	-598.6695616505915	-955.4850899337729	3688.695057274871	-571.4958277135971	-805.1330797022977	3645.660335165586	-481.0043162888269	-597.2921525665072	3774.0375619645006	-733.5497767701154	-354.11648864556423	3634.183102695711	-691.9151846237944	-522.9985751161377	3582.109226682261	-526.7856265374295	-597.4580260158169	3605.147125155561	-425.76970672330765	-583.3239823292924	3595.099561361178	-411.42933886061894	-563.8686775910221	3566.2029128287004	-412.33788408313126	-663.7035005093115	3920.7159318060912	-486.94148056094036	-431.8333218897944	4089.9411681158026	-419.807080908748	-170.06735139131126	4098.2656536830655	-365.0504206114377	-55.65989250150083	4084.6743931233405	-369.13696986508	-14.03574837197359	4126.634598772826	-354.6054574576682	-39.18896958716519	4148.459920654881	-335.4889355432642
175	2.9166666666666665	-124.03918368568122	3907.3394822503487	-645.8774253149169	238.780150153669	4078.8183357052108	-663.7621368086171	602.2567650591308	4267.539659318849	-692.6474239356965	684.0982602331609	4186.996402780513	-647.4678989061703	677.2384026589688	4160.732823300735	-701.0540896560749	640.5641334704965	4315.666529284386	-698.3579217149003	-160.2704830407702	4051.76422771364	-504.3127714642516	210.24868217473357	4165.9376878750445	-503.1900341444165	548.9796369768688	4330.705180782452	-521.8762784477724	633.0526427408182	4215.556169311189	-401.2010785517592	605.9944469042168	4279.96569039482	-379.4770640706442	605.893483979016	4375.567330467997	-545.3930165288757	-707.9829352366099	3805.9050139011824	-596.6921209340501	-956.9120573882412	3688.616205279833	-569.7676710204057	-805.1587478418849	3638.8913594931223	-479.5498865076157	-596.5154182000897	3774.5316586040863	-733.6428041217779	-354.3478693244261	3633.988069952846	-691.7880952332226	-521.6890935729017	3585.7668584001312	-528.0905679516168	-598.4265417928948	3610.8222627763803	-427.13731290494354	-587.8249281589149	3608.2446309315455	-413.39882884618237	-565.214465226781	3574.261376408681	-416.67431961726265	-663.1107062194236	3919.850935329162	-486.6996287777996	-432.3735814679914	4089.707723653502	-419.49256069345006	-169.67725513552858	4091.6361209701295	-364.0113205511461	-53.06918118748085	4084.897766846091	-368.8594475229905	-14.00003247943192	4126.725103570739	-354.8902209460814	-39.23949638935799	4147.915547945938	-335.2254531923647
176	2.933333333333333	-124.1017157265113	3904.6216001271796	-645.1672118981157	239.8106396231181	4075.7931516708	-660.9179595920962	603.2725912219149	4268.243025235392	-692.9783241332944	685.5733541301523	4189.796848742893	-648.0276584849087	678.0073947104289	4159.046930061626	-699.1760205103865	641.5411683821567	4315.937625844482	-698.1159062233103	-159.88178569745006	4045.093641384962	-502.11456994658016	210.13593095848796	4165.763162892769	-502.1072383090115	548.8315274144392	4330.685838276025	-521.9529808269983	632.1969924652836	4215.27703081602	-401.2235543206209	604.7296402454696	4280.47402045593	-379.74487071452415	606.2387151575058	4375.611517024096	-545.4286272766299	-707.7038938054642	3803.9053978295506	-595.3448352398987	-958.8573041175263	3688.6228803567137	-568.6688894035491	-805.18757247675	3629.8095220276045	-476.11449463571546	-596.0075076534245	3774.764407212993	-733.6973728911669	-355.2671126529054	3633.474352050789	-691.5638244721094	-520.9847614415522	3593.0985791370254	-530.2480877388571	-599.2548225228379	3613.236728576379	-427.7071437722452	-590.8219137127941	3620.3053599930563	-414.379988352841	-566.5190167035539	3581.8935344112792	-419.5152715594477	-663.0118735107983	3917.044349648676	-486.0997505765529	-432.8727456443439	4083.582634129717	-417.9207349631865	-169.53721553190582	4088.537378285548	-363.56634196221614	-51.0663460808132	4092.267878795624	-369.89151968684297	-13.671511243821914	4128.720792540844	-356.1895846211607	-39.23760195641229	4147.821224859114	-335.1201754253718
